<svg width="462" height="453" viewBox="0 0 462 453" fill="none" xmlns="http://www.w3.org/2000/svg">
<path d="M439.861 240.827C438.133 289.364 420.392 335.965 389.405 373.363C358.419 410.761 315.927 436.855 268.557 447.574C221.187 458.294 171.601 453.037 127.532 432.624C83.4626 412.21 47.3868 377.788 24.93 334.724C2.47325 291.66 -5.10207 242.375 3.38531 194.554C11.8727 146.734 35.9456 103.066 71.8504 70.3602C107.755 37.6544 153.473 17.7489 201.876 13.7478C250.279 9.74672 298.645 21.8749 339.433 48.2412L314.781 86.3758C282.412 65.4517 244.029 55.8268 205.617 59.002C167.205 62.1773 130.923 77.9742 102.429 103.929C73.9349 129.885 54.8307 164.539 48.0951 202.49C41.3596 240.44 47.3713 279.552 65.1929 313.728C83.0146 347.903 111.644 375.221 146.618 391.421C181.591 407.621 220.942 411.793 258.535 403.286C296.128 394.779 329.849 374.071 354.44 344.392C379.031 314.713 393.11 277.73 394.481 239.211L439.861 240.827Z" fill="#37CB48"/>
<path d="M102.437 211.871L191.696 345.755L431.515 86.8884" stroke="#404040" stroke-width="51" stroke-miterlimit="2" stroke-linecap="round" stroke-linejoin="round"/>
</svg>
